<?xml version="1.0" encoding="UTF-8" standalone="no"?>
<!-- Created with Inkscape (http://www.inkscape.org/) -->

<svg
   xmlns:dc="http://purl.org/dc/elements/1.1/"
   xmlns:cc="http://creativecommons.org/ns#"
   xmlns:rdf="http://www.w3.org/1999/02/22-rdf-syntax-ns#"
   xmlns:svg="http://www.w3.org/2000/svg"
   xmlns="http://www.w3.org/2000/svg"
   xmlns:sodipodi="http://sodipodi.sourceforge.net/DTD/sodipodi-0.dtd"
   xmlns:inkscape="http://www.inkscape.org/namespaces/inkscape"
   version="1.1"
   id="svg885"
   width="346.84543"
   height="329.78665"
   viewBox="0 0 346.84543 329.78665"
   sodipodi:docname="goku.svg"
   inkscape:version="0.92.2 5c3e80d, 2017-08-06">
  <metadata
     id="metadata891">
    <rdf:RDF>
      <cc:Work
         rdf:about="">
        <dc:format>image/svg+xml</dc:format>
        <dc:type
           rdf:resource="http://purl.org/dc/dcmitype/StillImage" />
        <dc:title></dc:title>
      </cc:Work>
    </rdf:RDF>
  </metadata>
  <defs
     id="defs889" />
  <sodipodi:namedview
     pagecolor="#ffffff"
     bordercolor="#666666"
     borderopacity="1"
     objecttolerance="10"
     gridtolerance="10"
     guidetolerance="10"
     inkscape:pageopacity="0"
     inkscape:pageshadow="2"
     inkscape:window-width="1916"
     inkscape:window-height="1033"
     id="namedview887"
     showgrid="false"
     fit-margin-top="0"
     fit-margin-left="0"
     fit-margin-right="0"
     fit-margin-bottom="0"
     inkscape:zoom="1.8581385"
     inkscape:cx="148.66133"
     inkscape:cy="207.53143"
     inkscape:window-x="0"
     inkscape:window-y="22"
     inkscape:window-maximized="0"
     inkscape:current-layer="layer1" />
  <g
     inkscape:groupmode="layer"
     id="layer1"
     inkscape:label="Layer 1"
     style="display:inline">
    <path
       style="display:inline;fill:#05bbcb;fill-opacity:1;fill-rule:evenodd;stroke:none;stroke-width:0.6538322px;stroke-linecap:butt;stroke-linejoin:miter;stroke-opacity:1"
       d="M 110.14718,319.13138 64.19976,300.6899 87.64232,297.56422 c 0,0 -25.63054,-8.12675 -38.4458,-25.9431 C 36.38125,253.80478 21.06545,233.80046 21.06545,233.80046 l 34.69498,11.25243 c 0,0 -7.18904,-20.31689 -10.31472,-30.00648 C 42.32004,205.35682 28.2545,150.34495 28.2545,150.34495 l 30.00648,20.94202 c 0,0 -3.43825,-22.81743 -2.18798,-50.32337 1.25028,-27.50593 5.00108,-42.82174 5.00108,-42.82174 l 20.31689,41.25891 15.94094,-47.19769 c 0,0 0,-7.18905 5.62621,-17.19121 5.62621,-10.00216 48.1354,-43.44688 48.1354,-43.44688 l -7.18906,57.51241 c 0,0 11.25243,-13.12783 17.19121,-31.88188 C 167.03445,18.44148 169.535,0 169.535,0 c 0,0 41.2589,34.06985 47.19768,45.32228 5.93878,11.25243 9.06446,24.38026 9.06446,24.38026 l 10.00215,-22.50486 c 0,0 18.12892,34.69499 20.62946,44.38458 2.50054,9.68959 3.75081,15.94095 3.75081,15.94095 l 12.81527,-23.13 c 0,0 5.62621,60.95066 4.37594,70.64025 -1.25027,9.68959 -3.43824,22.19229 -3.43824,22.19229 l 30.00647,-24.0677 c 0,0 -15.62837,73.45336 -19.69175,79.39214 -4.06338,5.93878 -7.18905,9.68959 -7.18905,9.68959 l 35.63269,-10.31473 c 0,0 -36.57039,51.26107 -44.38458,57.51242 -7.81419,6.25135 -18.75405,10.31472 -18.75405,10.31472 l 21.56716,2.18798 -39.07093,11.565 c 0,0 0.9377,-1.56284 7.81418,-8.12676 6.87648,-6.56392 15.31581,-33.44472 10.00216,-38.44579 -5.31365,-5.00109 -6.87648,-1.56285 -6.87648,-1.56285 0,0 0.31256,2.65683 -0.62514,4.06338 -0.9377,1.40656 -29.06877,31.41303 -29.06877,31.41303 0,0 10.62729,-22.81742 10.62729,-32.19445 0,-9.37702 -7.03277,-13.28411 -7.03277,-13.28411 0,0 -6.87648,14.84695 -14.3781,24.53654 -7.50162,9.68959 -20.78574,20.94202 -20.78574,20.94202 0,0 14.37811,-24.0677 14.84696,-35.94526 0.46885,-11.87756 -0.78142,-24.38026 -0.78142,-24.38026 0,0 -3.12568,0.78142 -6.40763,4.53223 -3.28196,3.75081 -4.53223,5.62622 -4.53223,5.62622 0,0 -4.8448,-10.93987 -9.68959,-10.93987 -4.8448,0 -26.88081,1.71912 -33.91357,23.13 -7.03277,21.41086 -5.93878,51.41734 -5.93878,51.41734 0,0 -13.28412,-30.16276 -12.34642,-45.16599 0.9377,-15.00324 0.31257,-12.97156 0.31257,-12.97156 0,0 -6.7202,6.56392 -8.75189,18.59777 -2.03169,12.03385 0.62513,25.00539 0.62513,25.00539 l -21.0983,-31.56931 c 0,0 -1.25027,-0.46885 -2.65683,3.12568 -1.40655,3.59452 -2.03168,21.41087 1.40656,27.19337 3.43824,5.7825 19.84803,19.53546 19.84803,19.53546 z"
       id="super-saiyan-blue"
       inkscape:connector-curvature="0" />
    <path
       style="fill:#fff731;fill-opacity:1;fill-rule:evenodd;stroke:none;stroke-width:1px;stroke-linecap:butt;stroke-linejoin:miter;stroke-opacity:1"
       d="m 117.58865,329.78666 -12.77945,-7.15716 12.24343,-1.21089 c 0,0 -17.08699,-3.63266 -25.025042,-9.9562 -7.938052,-6.32353 -28.52317,-33.23218 -28.52317,-33.23218 l 22.33418,1.61452 c 0,0 -16.279734,-6.59262 -22.872353,-16.95245 -6.59262,-10.35983 -25.697763,-71.57702 -25.697763,-71.57702 0,0 16.145191,14.26159 23.410527,16.95245 7.265336,2.69087 13.454326,5.91991 13.454326,5.91991 0,0 -9.418028,-16.54882 -12.916153,-30.67587 -3.498124,-14.12704 -4.9781,-50.31917 -4.9781,-50.31917 l 16.54882,27.85045 c 0,0 -0.269086,-18.83606 1.883606,-30.27223 C 76.8242,119.33464 85.031339,93.233249 85.031339,93.233249 L 101.7147,146.78147 c 0,0 4.17084,-27.85046 9.0144,-41.0357 4.84356,-13.185238 13.85796,-30.810404 13.85796,-30.810404 0,0 1.8836,17.625166 4.43992,24.352329 2.55633,6.727165 3.0945,10.359835 3.0945,10.359835 0,0 7.13079,-24.890507 12.64707,-34.039448 5.51627,-9.148942 12.24343,-16.010648 12.24343,-16.010648 l 0.26909,42.246586 c 0,0 18.16334,-20.181492 23.9487,-31.886755 5.78536,-11.705263 12.91615,-42.381126 12.91615,-42.381126 0,0 11.83981,27.177738 20.45058,41.842953 8.61076,14.665215 14.53067,28.523171 14.53067,32.694008 0,4.17084 -0.26909,10.09075 -0.26909,10.09075 0,0 4.17084,-8.47623 5.24719,-13.588871 1.07634,-5.112644 3.90175,-10.763461 3.90175,-10.763461 l 16.41428,41.977492 c 0,0 7.66897,-5.65081 11.97435,-13.31978 4.30538,-7.66896 9.82166,-15.60702 9.82166,-15.60702 0,0 15.06884,65.25348 9.28348,78.16964 -5.78536,12.91615 -7.39988,20.18149 -7.39988,20.18149 0,0 12.78161,-2.42178 25.02505,-11.57072 12.24344,-9.14895 20.71966,-11.16709 20.71966,-11.16709 0,0 -22.46872,59.87174 -28.52317,68.88614 -6.05445,9.0144 -29.46497,26.50502 -29.46497,26.50502 l 17.75971,-3.49812 c 0,0 -14.53067,28.52317 -23.0069,34.57762 -8.47623,6.05444 -36.73031,19.77786 -36.73031,19.77786 l 0.40363,-6.32354 c 0,0 8.47623,-2.01815 14.66522,-12.51252 6.18899,-10.49437 7.93805,-23.9487 7.93805,-23.9487 0,0 -3.90176,3.63267 -11.43618,5.38173 -7.53442,1.74906 -9.68711,1.34543 -9.68711,1.34543 0,0 6.32353,-5.11264 9.14894,-10.09074 2.82541,-4.9781 1.74906,-25.15959 1.74906,-25.15959 0,0 0.40363,-7.93805 -5.65082,-9.55257 -6.05444,-1.61452 -33.50127,1.21089 -33.50127,1.21089 0,0 1.61452,-11.16709 -5.24718,-8.20714 -6.86171,2.95995 -21.1233,10.35983 -34.03945,33.9049 -12.91615,23.54507 -22.33418,38.34483 -22.33418,38.34483 0,0 -4.9781,-23.67962 -2.15269,-36.05759 2.82541,-12.37798 11.8398,-28.25409 11.8398,-28.25409 l -20.45057,1.21089 c 0,0 -13.9925,11.97435 -12.78161,24.8905 1.21089,12.91616 5.38173,24.08325 5.38173,24.08325 0,0 -18.970599,-3.63267 -21.796007,-11.97435 -2.825409,-8.34169 -0.40363,25.15959 10.225287,27.85045 10.62892,2.69087 11.57072,2.69087 11.57072,2.69087 l 4.30538,8.74531 z"
       id="super-saiyan-2"
       inkscape:connector-curvature="0" />
    <path
       style="fill:#ffbd31;fill-opacity:1;fill-rule:evenodd;stroke:none;stroke-width:1px;stroke-linecap:butt;stroke-linejoin:miter;stroke-opacity:1"
       d="m 119.47441,325.05128 c 0,0 -4.35931,-4.68313 -6.83285,-5.72963 -2.47355,-1.0465 -6.94496,-3.04437 -6.94496,-3.04437 l 7.23037,-2.093 c 0,0 -4.47142,-1.71245 -5.51792,-2.75895 -1.0465,-1.04651 -3.04436,-2.28328 -3.04436,-2.28328 0,0 -8.752558,-0.66595 -13.414244,-4.94709 C 86.28876,299.91382 68.59338,276.31998 68.59338,276.31998 l 18.456472,1.42704 c 0,0 -17.505107,-12.55801 -23.213294,-19.78838 -5.708187,-7.23037 -23.403567,-66.50038 -23.403567,-66.50038 0,0 14.555877,13.0337 20.549473,16.45861 5.993597,3.42491 16.553743,9.89419 16.553743,9.89419 0,0 -10.750419,-19.59811 -13.889922,-33.86858 -3.139503,-14.27046 -6.659552,-45.09467 -6.659552,-45.09467 l 21.215429,26.44793 c 0,0 1.427047,-11.79692 3.520048,-18.55161 2.093002,-6.75469 10.750419,-34.24912 10.750419,-34.24912 l 11.321241,33.58317 c 0,0 4.85196,-20.73975 8.65741,-31.01449 3.80546,-10.27473 13.98506,-25.020883 13.98506,-25.020883 l 4.37628,28.160393 c 0,0 8.0866,-22.166797 12.08233,-27.684711 3.99573,-5.517914 16.83915,-17.029424 16.83915,-17.029424 0,0 -0.19027,15.887787 0.19027,20.834882 0.38055,4.947096 1.99787,8.847693 1.99787,8.847693 0,0 11.03583,-11.60665 14.93642,-18.741884 3.90059,-7.135233 12.65315,-43.572494 12.65315,-43.572494 0,0 36.53239,59.174868 37.67403,69.259338 1.14164,10.08446 0.0951,17.79051 0.0951,17.79051 0,0 3.42491,-8.56228 5.2325,-15.79265 1.8076,-7.23037 3.71032,-13.604509 3.71032,-13.604509 l 11.13097,32.156119 c 0,0 8.27687,-5.2325 12.36774,-11.60665 4.09087,-6.37414 12.46287,-18.17106 12.46287,-18.17106 0,0 4.28114,34.34426 4.66169,45.18982 0.38054,10.84555 1.99786,33.10748 0.38054,36.72267 -1.61731,3.61518 -6.75468,15.79265 -6.75468,15.79265 0,0 13.22396,-3.52005 22.64247,-8.65742 9.41851,-5.13737 19.59811,-10.27474 19.59811,-10.27474 0,0 -16.93429,44.52386 -23.87925,54.32292 -6.94496,9.79905 -31.29989,30.5388 -31.29989,30.5388 0,0 4.66169,1.33191 11.89206,-1.71246 7.23037,-3.04437 21.59597,-7.51578 21.59597,-7.51578 0,0 -21.59597,33.10748 -28.73121,38.14972 -7.13523,5.04223 -20.83488,9.98932 -20.83488,9.98932 0,0 2.18814,0.57082 5.13737,1.0465 2.94923,0.47569 5.70818,0.19028 5.70818,0.19028 0,0 -11.13096,4.28114 -17.12456,8.84769 -5.99359,4.56655 -12.84342,10.84555 -12.84342,10.84555 l -0.47568,-5.89846 c 0,0 13.60451,-5.99359 18.2662,-15.31697 4.66169,-9.32337 8.65742,-15.98292 8.84769,-19.12242 0.19027,-3.1395 0.19027,-10.75042 0.19027,-10.75042 0,0 -3.04436,9.51364 -7.13523,12.84342 -4.09087,3.32978 -20.45434,12.36774 -20.45434,12.36774 0,0 7.23037,-9.60878 7.23037,-11.98719 0,-2.37842 -0.0951,-6.08874 -0.0951,-6.08874 0,0 -7.70606,7.89633 -11.89206,11.03583 -4.186,3.1395 -11.03583,8.0866 -11.03583,8.0866 0,0 6.84983,-19.97865 6.18387,-32.15612 -0.66595,-12.17747 -3.80546,-21.97652 -6.37414,-22.26193 -2.56869,-0.28541 -4.37628,0.85623 -4.37628,0.85623 0,0 -0.95136,-7.0401 -4.28114,-6.37414 -3.32977,0.66595 -17.88565,13.79478 -27.68471,28.54093 -9.79905,14.74615 -21.59597,31.87071 -21.59597,31.87071 0,0 -0.47568,-18.45647 0.0951,-25.5917 0.57082,-7.13524 0.95136,-17.98079 0.95136,-17.98079 0,0 -7.89632,2.28327 -11.79692,11.32124 -3.90059,9.03796 -7.89632,30.34852 -7.89632,30.34852 0,0 -4.9471,-13.3191 -6.18387,-18.2662 -1.23678,-4.94709 -3.23464,-11.98719 -3.23464,-11.98719 0,0 -4.66169,5.89846 -3.61519,11.98719 1.0465,6.08874 6.08874,23.87925 6.08874,23.87925 0,0 -18.55161,-6.46928 -22.071661,-16.26833 -3.520049,-9.79905 -4.947096,-17.02942 -4.947096,-17.02942 0,0 -2.093002,-0.7611 -2.473547,2.47354 -0.380546,3.23464 2.283274,27.20903 6.849824,30.5388 2.61034,1.90338 10.27812,8.59816 21.40672,14.16312 l -1.34985,7.4543"
       id="super-saiyan-1"
       inkscape:connector-curvature="0"
       sodipodi:nodetypes="ccccccsccscscsccscccccscccscsccccscsccscscscscccsccsscscscscssccscccscccscscsccc" />
    <path
       style="fill:#000000;fill-opacity:1;fill-rule:evenodd;stroke:none;stroke-width:0.6538322px;stroke-linecap:butt;stroke-linejoin:miter;stroke-opacity:1"
       d="m 102.52213,303.64009 c 0,0 -10.62729,-5.62621 -28.7562,-5.62621 -18.12892,0 -30.63162,1.25027 -30.63162,1.25027 L 76.8916,274.88389 c 0,0 -10.62729,-8.75189 -33.13215,-10.62729 C 21.25459,262.38119 0,266.75713 0,266.75713 c 0,0 14.37811,-27.50593 27.50594,-38.13323 13.12783,-10.62729 43.13431,-10.62729 43.13431,-10.62729 0,0 -11.25243,-28.75621 -26.8808,-40.00863 C 28.13107,166.73555 6.87649,147.9815 6.87649,147.9815 c 0,0 52.51133,-15.00324 75.01618,-7.50162 22.50486,7.50162 48.76053,28.75621 48.76053,28.75621 0,0 5.62622,-31.88189 0,-52.51134 -5.62622,-20.62945 -15.00324,-39.3835 -15.00324,-39.3835 0,0 63.76377,11.87757 73.76593,39.3835 10.00215,27.50594 15.62837,58.13755 15.62837,58.13755 0,0 17.50378,3.75081 23.75513,11.25243 6.25134,7.50162 15.62837,20.62945 15.62837,20.62945 0,0 31.2497,-11.00357 43.84776,-13.43477 12.59806,-2.43121 41.10945,-3.09426 41.10945,-3.09426 l -49.06612,40.66741 c 0,0 24.09102,-0.44203 35.80501,0 11.71398,0.44204 30.72158,4.86242 30.72158,4.86242 l -62.54826,30.50056 30.9426,10.82991 c 0,0 -26.30121,1.76814 -38.23621,5.52546 -11.935,3.75731 -32.0477,15.91334 -32.0477,15.91334 0,0 4.64139,-14.58723 3.31529,-20.77575 -1.32611,-6.18852 -1.54714,-17.01843 -6.63056,-12.37704 -5.08343,4.64139 -3.97834,13.26112 -14.36621,19.22862 -10.38787,5.9675 -10.38787,5.9675 -10.38787,5.9675 l 5.08342,-17.46047 -9.06176,9.28278 c 0,0 1.32611,-8.17769 1.1051,-13.70315 -0.22102,-5.52547 -0.22102,-7.0726 -0.22102,-7.0726 0,0 -1.98917,8.84075 -12.81908,17.23945 -10.82991,8.39871 -17.68149,14.58723 -17.68149,14.58723 0,0 11.71399,-30.50056 6.85158,-45.08779 -4.86241,-14.58723 -11.935,-19.89167 -11.935,-19.89167 0,0 -6.63056,-0.22102 -19.67066,18.12352 -13.04009,18.34455 -20.77574,25.41714 -23.64899,35.80501 -2.87324,10.38788 -5.08342,16.57639 -5.08342,16.57639 0,0 -5.74648,-17.9025 -7.95667,-26.52222 -2.21019,-8.61973 -3.97833,-16.13436 -3.97833,-16.13436 l -9.94584,18.78658 c 0,0 1.76815,7.29361 3.97834,10.82991 2.21018,3.5363 5.08342,10.16685 5.08342,10.16685 0,0 -10.82991,-5.30444 -15.91334,-13.92416 -5.08342,-8.61973 -7.51463,-15.69232 -7.51463,-15.69232 0,0 -5.08343,-4.19936 -2.21019,11.935 2.87325,16.13435 11.17417,25.23853 11.17417,25.23853 z"
       id="saiyan"
       inkscape:connector-curvature="0" />
  </g>
</svg>
