<?xml version="1.0" encoding="UTF-8" standalone="no"?>
<svg
   xmlns:dc="http://purl.org/dc/elements/1.1/"
   xmlns:cc="http://creativecommons.org/ns#"
   xmlns:rdf="http://www.w3.org/1999/02/22-rdf-syntax-ns#"
   xmlns:svg="http://www.w3.org/2000/svg"
   xmlns="http://www.w3.org/2000/svg"
   viewBox="0 0 530.48083 488.09372"
   height="488.09372"
   width="530.48083"
   id="svg885"
   version="1.1">
  <metadata
     id="metadata891">
    <rdf:RDF>
      <cc:Work
         rdf:about="">
        <dc:format>image/svg+xml</dc:format>
        <dc:type
           rdf:resource="http://purl.org/dc/dcmitype/StillImage" />
        <dc:title></dc:title>
      </cc:Work>
    </rdf:RDF>
  </metadata>
  <defs
     id="defs889" />
  <g
     transform="translate(-210.15524,-15.862394)"
     id="layer3">
    <path
       id="path1524"
       d="m 378.61922,503.95611 -70.27402,-28.20522 35.85409,-4.78055 c 0,0 -39.20048,-12.42942 -58.80071,-39.67853 -19.60024,-27.24911 -43.02491,-57.8446 -43.02491,-57.8446 l 53.06405,17.20997 c 0,0 -10.99525,-31.07355 -15.7758,-45.89324 -4.78054,-14.81969 -26.293,-98.9573 -26.293,-98.9573 l 45.89324,32.02966 c 0,0 -5.2586,-34.89799 -3.34638,-76.96679 1.91222,-42.0688 7.64887,-65.49347 7.64887,-65.49347 l 31.07355,63.1032 24.38078,-72.18624 c 0,0 0,-10.99526 8.60498,-26.293002 8.60498,-15.297746 73.62041,-66.449585 73.62041,-66.449585 l -10.99526,87.962037 c 0,0 17.20997,-20.07829 26.293,-48.761562 9.08304,-28.683274 12.90748,-56.888494 12.90748,-56.888494 0,0 63.1032,52.107948 72.18624,69.317913 9.08303,17.209963 13.86358,37.288253 13.86358,37.288253 l 15.29774,-34.419926 c 0,0 27.72717,53.064056 31.55161,67.883746 3.82443,14.81969 5.73665,24.38079 5.73665,24.38079 l 19.60024,-35.37604 c 0,0 8.60498,93.22064 6.69276,108.04033 -1.91222,14.81969 -5.2586,33.94187 -5.2586,33.94187 l 45.89324,-36.8102 c 0,0 -23.90273,112.34283 -30.11744,121.42586 -6.21471,9.08304 -10.99525,14.81969 -10.99525,14.81969 l 54.49822,-15.7758 c 0,0 -55.93239,78.40095 -67.88375,87.96204 -11.95137,9.5611 -28.68328,15.7758 -28.68328,15.7758 l 32.98577,3.34639 -59.75682,17.68802 c 0,0 1.43416,-2.39028 11.95136,-12.42942 10.5172,-10.03915 23.42468,-51.15184 15.29775,-58.80071 -8.12693,-7.64888 -10.5172,-2.39028 -10.5172,-2.39028 0,0 0.47805,4.06347 -0.95611,6.21471 -1.43416,2.15125 -44.45907,48.04449 -44.45907,48.04449 0,0 16.25385,-34.89799 16.25385,-49.23963 0,-14.34163 -10.75623,-20.31731 -10.75623,-20.31731 0,0 -10.5172,22.70759 -21.99051,37.52728 -11.47331,14.81969 -31.79063,32.02966 -31.79063,32.02966 0,0 21.99051,-36.81021 22.7076,-54.97628 0.71708,-18.16607 -1.19514,-37.28826 -1.19514,-37.28826 0,0 -4.78055,1.19514 -9.80012,6.93179 -5.01957,5.73666 -6.93179,8.60499 -6.93179,8.60499 0,0 -7.40985,-16.73191 -14.81969,-16.73191 -7.40985,0 -41.1127,2.6293 -51.86892,35.37604 -10.75623,32.74673 -9.08304,78.63997 -9.08304,78.63997 0,0 -20.31732,-46.13226 -18.88316,-69.07888 1.43417,-22.94662 0.47806,-19.83927 0.47806,-19.83927 0,0 -10.27817,10.03915 -13.38553,28.44425 -3.10735,18.4051 0.95611,38.24436 0.95611,38.24436 l -32.26868,-48.28351 c 0,0 -1.91222,-0.71708 -4.06347,4.78055 -2.15124,5.49763 -3.10735,32.74674 2.15125,41.59075 5.2586,8.84401 30.35646,29.87841 30.35646,29.87841 z"
       style="display:inline;fill:#05bbcb;fill-opacity:1;fill-rule:evenodd;stroke:none;stroke-width:1px;stroke-linecap:butt;stroke-linejoin:miter;stroke-opacity:1" />
  </g>
  <g
     transform="translate(-210.15524,-15.862394)"
     style="display:inline"
     id="layer2" />
</svg>
