<?xml version="1.0" encoding="UTF-8" standalone="no"?>
<svg
   xmlns:dc="http://purl.org/dc/elements/1.1/"
   xmlns:cc="http://creativecommons.org/ns#"
   xmlns:rdf="http://www.w3.org/1999/02/22-rdf-syntax-ns#"
   xmlns:svg="http://www.w3.org/2000/svg"
   xmlns="http://www.w3.org/2000/svg"
   viewBox="0 0 530.48083 488.09372"
   height="488.09372"
   width="530.48083"
   id="svg885"
   version="1.1">
  <metadata
     id="metadata891">
    <rdf:RDF>
      <cc:Work
         rdf:about="">
        <dc:format>image/svg+xml</dc:format>
        <dc:type
           rdf:resource="http://purl.org/dc/dcmitype/StillImage" />
        <dc:title></dc:title>
      </cc:Work>
    </rdf:RDF>
  </metadata>
  <defs
     id="defs889" />
  <g
     transform="translate(-210.15524,-15.862394)"
     id="layer3" />
  <g
     transform="translate(-210.15524,-15.862394)"
     style="display:inline"
     id="layer2">
    <path
       id="path895"
       d="m 366.95714,480.26305 c 0,0 -16.25386,-8.60498 -43.98102,-8.60498 -27.72717,0 -46.84935,1.91222 -46.84935,1.91222 l 51.62989,-37.28826 c 0,0 -16.25385,-13.38553 -50.67378,-16.25385 -34.41993,-2.86833 -66.92764,3.82443 -66.92764,3.82443 0,0 21.99051,-42.0688 42.0688,-58.32266 20.07829,-16.25385 65.97153,-16.25385 65.97153,-16.25385 0,0 -17.20996,-43.98102 -41.11269,-61.19098 -23.90273,-17.20997 -56.41044,-45.89324 -56.41044,-45.89324 0,0 80.31317,-22.94662 114.73309,-11.47331 34.41993,11.47331 74.57652,43.98102 74.57652,43.98102 0,0 8.60498,-48.76157 0,-80.31317 -8.60499,-31.5516 -22.94662,-60.23487 -22.94662,-60.23487 0,0 97.52313,18.16607 112.82088,60.23487 15.29774,42.0688 23.90272,88.91815 23.90272,88.91815 0,0 26.77106,5.73665 36.33215,17.20996 9.56109,11.47331 23.90273,31.55161 23.90273,31.55161 0,0 47.79468,-16.82935 67.06271,-20.54774 19.26803,-3.7184 62.87462,-4.7325 62.87462,-4.7325 l -75.0439,62.19855 c 0,0 36.84588,-0.67607 54.76177,0 17.91588,0.67607 46.98695,7.43679 46.98695,7.43679 l -95.66408,46.64891 47.32498,16.56375 c 0,0 -40.22624,2.70428 -58.48016,8.45089 -18.25392,5.7466 -49.01517,24.33856 -49.01517,24.33856 0,0 7.09875,-22.31035 5.07054,-31.77535 -2.02821,-9.46499 -2.36625,-26.02874 -10.14107,-18.92999 -7.77482,7.09875 -6.08464,20.28214 -21.97232,29.4091 -15.88767,9.12696 -15.88767,9.12696 -15.88767,9.12696 l 7.77482,-26.70481 -13.85946,14.19749 c 0,0 2.02821,-12.50732 1.69018,-20.95821 -0.33804,-8.45089 -0.33804,-10.81714 -0.33804,-10.81714 0,0 -3.04232,13.52143 -19.60606,26.36678 -16.56375,12.84536 -27.04286,22.31035 -27.04286,22.31035 0,0 17.91589,-46.64891 10.47911,-68.95926 -7.43678,-22.31036 -18.25392,-30.42321 -18.25392,-30.42321 0,0 -10.14107,-0.33804 -30.08518,27.71892 -19.9441,28.05696 -31.77534,38.8741 -36.16981,54.76177 -4.39446,15.88768 -7.77482,25.35267 -7.77482,25.35267 0,0 -8.78892,-27.38088 -12.16928,-40.56427 -3.38036,-13.18339 -6.08464,-24.6766 -6.08464,-24.6766 l -15.2116,28.73303 c 0,0 2.70428,11.15517 6.08464,16.56374 3.38035,5.40857 7.77482,15.54964 7.77482,15.54964 0,0 -16.56375,-8.11285 -24.33857,-21.29624 -7.77482,-13.18339 -11.49321,-24.00053 -11.49321,-24.00053 0,0 -7.77482,-6.42268 -3.38036,18.25392 4.39447,24.6766 17.09027,38.60094 17.09027,38.60094 z"
       style="fill:#000000;fill-opacity:1;fill-rule:evenodd;stroke:none;stroke-width:1px;stroke-linecap:butt;stroke-linejoin:miter;stroke-opacity:1" />
  </g>
</svg>
